<svg width="25" height="25" viewBox="0 0 25 25" fill="none" xmlns="http://www.w3.org/2000/svg">
<path d="M7.931 17.6698C6.83062 18.3016 3.9455 19.5917 5.70273 21.206C6.56113 21.9946 7.51716 22.5586 8.71912 22.5586H15.5777C16.7797 22.5586 17.7357 21.9946 18.5941 21.206C20.3513 19.5917 17.4662 18.3016 16.3658 17.6698C13.7855 16.1882 10.5113 16.1882 7.931 17.6698Z" stroke="#7D8CA7" stroke-width="1.5" stroke-linecap="round" stroke-linejoin="round"/>
<path d="M15.6484 10.5586C15.6484 12.4916 14.0814 14.0586 12.1484 14.0586C10.2154 14.0586 8.64844 12.4916 8.64844 10.5586C8.64844 8.62559 10.2154 7.05859 12.1484 7.05859C14.0814 7.05859 15.6484 8.62559 15.6484 10.5586Z" stroke="#7D8CA7" stroke-width="1.5"/>
<path d="M3.00244 16.5586C2.45345 15.325 2.14844 13.9596 2.14844 12.5232C2.14844 7.01988 6.62559 2.55859 12.1484 2.55859C17.6712 2.55859 22.1484 7.01988 22.1484 12.5232C22.1484 13.9596 21.8434 15.325 21.2944 16.5586" stroke="#7D8CA7" stroke-width="1.5" stroke-linecap="round"/>
</svg>
